<svg width="23" height="20" viewBox="0 0 23 20" fill="none" xmlns="http://www.w3.org/2000/svg">
<path d="M1.66667 20C1.22222 20 0.833333 19.8333 0.5 19.5C0.166667 19.1667 0 18.7778 0 18.3333V1.66667C0 1.22222 0.166667 0.833333 0.5 0.5C0.833333 0.166667 1.22222 0 1.66667 0H21C21.4444 0 21.8333 0.166667 22.1667 0.5C22.5 0.833333 22.6667 1.22222 22.6667 1.66667V18.3333C22.6667 18.7778 22.5 19.1667 22.1667 19.5C21.8333 19.8333 21.4444 20 21 20H1.66667ZM3.55556 15.5556H9.11111V13.3333H3.55556V15.5556ZM14.1667 13.3333L19.6667 7.83333L18.0833 6.25L14.1667 10.1944L12.5833 8.61111L11.0278 10.1944L14.1667 13.3333ZM3.55556 11.1111H9.11111V8.88889H3.55556V11.1111ZM3.55556 6.66667H9.11111V4.44444H3.55556V6.66667Z" fill="white"/>
</svg>
