<svg width="14" height="14" viewBox="0 0 14 14" fill="none" xmlns="http://www.w3.org/2000/svg">
<path d="M6.01658 10.0333L10.7333 5.31666L9.96659 4.56666L6.01658 8.51666L4.01659 6.51666L3.26659 7.26666L6.01658 10.0333ZM6.99992 13.6667C6.08881 13.6667 5.2277 13.4917 4.41658 13.1417C3.60547 12.7917 2.89714 12.3139 2.29159 11.7083C1.68603 11.1028 1.20825 10.3944 0.858252 9.58333C0.508252 8.77222 0.333252 7.91111 0.333252 6.99999C0.333252 6.07777 0.508252 5.21111 0.858252 4.39999C1.20825 3.58888 1.68603 2.88333 2.29159 2.28333C2.89714 1.68333 3.60547 1.20833 4.41658 0.858328C5.2277 0.508328 6.08881 0.333328 6.99992 0.333328C7.92214 0.333328 8.78881 0.508328 9.59992 0.858328C10.411 1.20833 11.1166 1.68333 11.7166 2.28333C12.3166 2.88333 12.7916 3.58888 13.1416 4.39999C13.4916 5.21111 13.6666 6.07777 13.6666 6.99999C13.6666 7.91111 13.4916 8.77222 13.1416 9.58333C12.7916 10.3944 12.3166 11.1028 11.7166 11.7083C11.1166 12.3139 10.411 12.7917 9.59992 13.1417C8.78881 13.4917 7.92214 13.6667 6.99992 13.6667ZM6.99992 12.6667C8.5777 12.6667 9.91658 12.1139 11.0166 11.0083C12.1166 9.90277 12.6666 8.56666 12.6666 6.99999C12.6666 5.42222 12.1166 4.08333 11.0166 2.98333C9.91658 1.88333 8.5777 1.33333 6.99992 1.33333C5.43325 1.33333 4.09714 1.88333 2.99159 2.98333C1.88603 4.08333 1.33325 5.42222 1.33325 6.99999C1.33325 8.56666 1.88603 9.90277 2.99159 11.0083C4.09714 12.1139 5.43325 12.6667 6.99992 12.6667Z" fill="#606060"/>
</svg>
