<svg width="14" height="13" viewBox="0 0 14 13" fill="none" xmlns="http://www.w3.org/2000/svg">
<path d="M6.99992 12.6083L6.31659 11.9917C5.14139 10.9125 4.16981 9.98165 3.40185 9.19898C2.6339 8.41632 2.02214 7.71666 1.56659 7.1C1.11103 6.48333 0.791585 5.925 0.608252 5.425C0.424919 4.925 0.333252 4.41944 0.333252 3.90833C0.333252 2.90661 0.669363 2.07007 1.34159 1.39871C2.01381 0.727346 2.84436 0.391663 3.83325 0.391663C4.46659 0.391663 5.0527 0.541663 5.59159 0.841663C6.13047 1.14166 6.59992 1.575 6.99992 2.14166C7.46658 1.54166 7.96103 1.1 8.48325 0.816663C9.00547 0.533329 9.56658 0.391663 10.1666 0.391663C11.1555 0.391663 11.986 0.727346 12.6583 1.39871C13.3305 2.07007 13.6666 2.90661 13.6666 3.90833C13.6666 4.41944 13.5749 4.925 13.3916 5.425C13.2083 5.925 12.8888 6.48333 12.4333 7.1C11.9777 7.71666 11.3659 8.41632 10.598 9.19898C9.83003 9.98165 8.85845 10.9125 7.68325 11.9917L6.99992 12.6083ZM6.99992 11.2917C8.12476 10.2584 9.05042 9.37229 9.77688 8.63336C10.5034 7.89445 11.0805 7.24722 11.5083 6.69166C11.936 6.13611 12.236 5.64091 12.4083 5.20608C12.5805 4.77123 12.6666 4.33946 12.6666 3.91075C12.6666 3.1758 12.4333 2.57222 11.9666 2.1C11.4999 1.62777 10.9012 1.39166 10.1703 1.39166C9.59785 1.39166 9.06798 1.56666 8.58075 1.91666C8.09353 2.26666 7.69992 2.75833 7.39992 3.39166H6.58325C6.29436 2.76944 5.90631 2.28055 5.41909 1.925C4.93185 1.56944 4.40199 1.39166 3.8295 1.39166C3.09867 1.39166 2.49992 1.62777 2.03325 2.1C1.56659 2.57222 1.33325 3.17675 1.33325 3.9136C1.33325 4.34342 1.41936 4.77777 1.59159 5.21666C1.76381 5.65555 2.06381 6.15555 2.49159 6.71666C2.91936 7.27777 3.49992 7.925 4.23325 8.65833C4.96659 9.39166 5.88881 10.2694 6.99992 11.2917Z" fill="#606060"/>
</svg>
