<svg width="14" height="14" viewBox="0 0 14 14" fill="none" xmlns="http://www.w3.org/2000/svg">
<path d="M6.16667 13.6333C5.36667 13.5333 4.61944 13.2944 3.925 12.9167C3.23056 12.5389 2.63056 12.0583 2.125 11.475C1.61944 10.8917 1.22222 10.2194 0.933333 9.45834C0.644444 8.69722 0.5 7.87778 0.5 7C0.5 6.02222 0.730556 5.08889 1.19167 4.2C1.65278 3.31111 2.27222 2.52222 3.05 1.83334H1.01667V0.833335H4.83333V4.65H3.83333V2.5C3.12222 3.06667 2.55556 3.74167 2.13333 4.525C1.71111 5.30834 1.5 6.13334 1.5 7C1.5 8.46667 1.94444 9.71945 2.83333 10.7583C3.72222 11.7972 4.83333 12.4167 6.16667 12.6167V13.6333ZM9.16667 13.1667V9.35H10.1667V11.5C10.8778 10.9222 11.4444 10.2444 11.8667 9.46667C12.2889 8.68889 12.5 7.86667 12.5 7C12.5 5.53334 12.0556 4.28056 11.1667 3.24167C10.2778 2.20278 9.16667 1.58334 7.83333 1.38334V0.366669C9.45556 0.566669 10.8056 1.28334 11.8833 2.51667C12.9611 3.75 13.5 5.24445 13.5 7C13.5 7.97778 13.2694 8.91111 12.8083 9.8C12.3472 10.6889 11.7278 11.4778 10.95 12.1667H12.9833V13.1667H9.16667Z" fill="#606060"/>
</svg>
